<mxfile host="app.diagrams.net" agent="Mozilla/5.0 (Windows NT 10.0; Win64; x64) AppleWebKit/537.36 (KHTML, like Gecko) Chrome/141.0.0.0 Safari/537.36" version="28.2.7">
  <diagram name="Page-1" id="8SxTndtkvqx8Hj_nL4qL">
    <mxGraphModel dx="6725" dy="3205" grid="1" gridSize="10" guides="1" tooltips="1" connect="1" arrows="1" fold="1" page="1" pageScale="1" pageWidth="850" pageHeight="1100" math="0" shadow="0">
      <root>
        <mxCell id="0" />
        <mxCell id="1" parent="0" />
        <mxCell id="8q7LOPW9GghOLVW9f01z-3" style="edgeStyle=orthogonalEdgeStyle;rounded=0;orthogonalLoop=1;jettySize=auto;html=1;entryX=0.5;entryY=0;entryDx=0;entryDy=0;fontSize=18;" edge="1" parent="1" source="8q7LOPW9GghOLVW9f01z-1" target="8q7LOPW9GghOLVW9f01z-2">
          <mxGeometry relative="1" as="geometry" />
        </mxCell>
        <mxCell id="8q7LOPW9GghOLVW9f01z-1" value="DNS" style="rounded=0;whiteSpace=wrap;html=1;fontSize=18;" vertex="1" parent="1">
          <mxGeometry x="-290" y="320" width="110" height="91.67" as="geometry" />
        </mxCell>
        <mxCell id="8q7LOPW9GghOLVW9f01z-5" style="edgeStyle=orthogonalEdgeStyle;rounded=0;orthogonalLoop=1;jettySize=auto;html=1;fontSize=18;" edge="1" parent="1" source="8q7LOPW9GghOLVW9f01z-2" target="8q7LOPW9GghOLVW9f01z-4">
          <mxGeometry relative="1" as="geometry" />
        </mxCell>
        <mxCell id="8q7LOPW9GghOLVW9f01z-2" value="AWS Route 53" style="rounded=0;whiteSpace=wrap;html=1;fontSize=18;" vertex="1" parent="1">
          <mxGeometry x="-290" y="480" width="110" height="91.67" as="geometry" />
        </mxCell>
        <mxCell id="8q7LOPW9GghOLVW9f01z-7" style="edgeStyle=orthogonalEdgeStyle;rounded=0;orthogonalLoop=1;jettySize=auto;html=1;entryX=0.5;entryY=0;entryDx=0;entryDy=0;fontSize=18;" edge="1" parent="1" source="8q7LOPW9GghOLVW9f01z-4">
          <mxGeometry relative="1" as="geometry">
            <mxPoint x="-235" y="810" as="targetPoint" />
          </mxGeometry>
        </mxCell>
        <mxCell id="8q7LOPW9GghOLVW9f01z-4" value="CDN (AWS CloudFront)" style="shape=hexagon;perimeter=hexagonPerimeter2;whiteSpace=wrap;html=1;fixedSize=1;fontSize=18;" vertex="1" parent="1">
          <mxGeometry x="-317.5" y="640" width="165" height="110" as="geometry" />
        </mxCell>
        <mxCell id="8q7LOPW9GghOLVW9f01z-18" style="edgeStyle=orthogonalEdgeStyle;rounded=0;orthogonalLoop=1;jettySize=auto;html=1;fontSize=18;" edge="1" parent="1" source="8q7LOPW9GghOLVW9f01z-8">
          <mxGeometry relative="1" as="geometry">
            <mxPoint x="-330" y="857.5" as="targetPoint" />
          </mxGeometry>
        </mxCell>
        <mxCell id="8q7LOPW9GghOLVW9f01z-8" value="CI/CD&lt;div&gt;GitHub Actions --&amp;gt; Deploy&lt;/div&gt;" style="rounded=0;whiteSpace=wrap;html=1;fontSize=18;" vertex="1" parent="1">
          <mxGeometry x="-605" y="810" width="190" height="95" as="geometry" />
        </mxCell>
        <mxCell id="8q7LOPW9GghOLVW9f01z-12" style="edgeStyle=orthogonalEdgeStyle;rounded=0;orthogonalLoop=1;jettySize=auto;html=1;entryX=0.5;entryY=0;entryDx=0;entryDy=0;fontSize=18;" edge="1" parent="1" source="8q7LOPW9GghOLVW9f01z-11" target="8q7LOPW9GghOLVW9f01z-8">
          <mxGeometry relative="1" as="geometry" />
        </mxCell>
        <mxCell id="8q7LOPW9GghOLVW9f01z-11" value="Manually Test Changes on Dev Server" style="ellipse;whiteSpace=wrap;html=1;aspect=fixed;fontSize=18;" vertex="1" parent="1">
          <mxGeometry x="-580" y="617.5" width="140" height="140" as="geometry" />
        </mxCell>
        <mxCell id="8q7LOPW9GghOLVW9f01z-33" style="edgeStyle=orthogonalEdgeStyle;rounded=0;orthogonalLoop=1;jettySize=auto;html=1;entryX=0;entryY=0.5;entryDx=0;entryDy=0;fontSize=18;" edge="1" parent="1" source="8q7LOPW9GghOLVW9f01z-14" target="8q7LOPW9GghOLVW9f01z-32">
          <mxGeometry relative="1" as="geometry" />
        </mxCell>
        <mxCell id="8q7LOPW9GghOLVW9f01z-14" value="Frontend" style="swimlane;whiteSpace=wrap;html=1;fontSize=18;" vertex="1" parent="1">
          <mxGeometry x="-30" y="310" width="340" height="610" as="geometry" />
        </mxCell>
        <mxCell id="8q7LOPW9GghOLVW9f01z-25" style="edgeStyle=orthogonalEdgeStyle;rounded=0;orthogonalLoop=1;jettySize=auto;html=1;entryX=0.5;entryY=0;entryDx=0;entryDy=0;fontSize=18;" edge="1" parent="8q7LOPW9GghOLVW9f01z-14" source="8q7LOPW9GghOLVW9f01z-20" target="8q7LOPW9GghOLVW9f01z-21">
          <mxGeometry relative="1" as="geometry" />
        </mxCell>
        <mxCell id="8q7LOPW9GghOLVW9f01z-20" value="Web Browser" style="shape=trapezoid;perimeter=trapezoidPerimeter;whiteSpace=wrap;html=1;fixedSize=1;fontSize=18;" vertex="1" parent="8q7LOPW9GghOLVW9f01z-14">
          <mxGeometry x="75" y="70" width="190" height="95" as="geometry" />
        </mxCell>
        <mxCell id="8q7LOPW9GghOLVW9f01z-27" value="" style="edgeStyle=orthogonalEdgeStyle;rounded=0;orthogonalLoop=1;jettySize=auto;html=1;fontSize=18;" edge="1" parent="8q7LOPW9GghOLVW9f01z-14" source="8q7LOPW9GghOLVW9f01z-21" target="8q7LOPW9GghOLVW9f01z-22">
          <mxGeometry relative="1" as="geometry" />
        </mxCell>
        <mxCell id="8q7LOPW9GghOLVW9f01z-21" value="Next.js&lt;div&gt;(Typescript)&lt;/div&gt;" style="rounded=0;whiteSpace=wrap;html=1;fontSize=18;" vertex="1" parent="8q7LOPW9GghOLVW9f01z-14">
          <mxGeometry x="75" y="210" width="190" height="95" as="geometry" />
        </mxCell>
        <mxCell id="8q7LOPW9GghOLVW9f01z-28" value="" style="edgeStyle=orthogonalEdgeStyle;rounded=0;orthogonalLoop=1;jettySize=auto;html=1;fontSize=18;" edge="1" parent="8q7LOPW9GghOLVW9f01z-14" source="8q7LOPW9GghOLVW9f01z-22" target="8q7LOPW9GghOLVW9f01z-23">
          <mxGeometry relative="1" as="geometry" />
        </mxCell>
        <mxCell id="8q7LOPW9GghOLVW9f01z-22" value="React.js" style="rounded=0;whiteSpace=wrap;html=1;fontSize=18;" vertex="1" parent="8q7LOPW9GghOLVW9f01z-14">
          <mxGeometry x="75" y="350" width="190" height="95" as="geometry" />
        </mxCell>
        <mxCell id="8q7LOPW9GghOLVW9f01z-23" value="UI/UX" style="rounded=0;whiteSpace=wrap;html=1;fontSize=18;" vertex="1" parent="8q7LOPW9GghOLVW9f01z-14">
          <mxGeometry x="75" y="490" width="190" height="95" as="geometry" />
        </mxCell>
        <mxCell id="8q7LOPW9GghOLVW9f01z-15" value="&lt;font&gt;Hosted AWS Amplify&lt;/font&gt;" style="shape=trapezoid;perimeter=trapezoidPerimeter;whiteSpace=wrap;html=1;fixedSize=1;fontSize=18;" vertex="1" parent="1">
          <mxGeometry x="-330" y="810" width="195.63" height="97.82" as="geometry" />
        </mxCell>
        <mxCell id="8q7LOPW9GghOLVW9f01z-31" style="edgeStyle=orthogonalEdgeStyle;rounded=0;orthogonalLoop=1;jettySize=auto;html=1;entryX=0.5;entryY=0;entryDx=0;entryDy=0;fontSize=18;" edge="1" parent="1" source="8q7LOPW9GghOLVW9f01z-30" target="8q7LOPW9GghOLVW9f01z-14">
          <mxGeometry relative="1" as="geometry" />
        </mxCell>
        <mxCell id="8q7LOPW9GghOLVW9f01z-30" value="&lt;div&gt;AWS CloudWatch&lt;/div&gt;&lt;div&gt;(Metrics, Logs)&lt;/div&gt;" style="rounded=0;whiteSpace=wrap;html=1;fontSize=18;" vertex="1" parent="1">
          <mxGeometry x="45" y="120" width="190" height="95" as="geometry" />
        </mxCell>
        <mxCell id="8q7LOPW9GghOLVW9f01z-42" style="edgeStyle=orthogonalEdgeStyle;rounded=0;orthogonalLoop=1;jettySize=auto;html=1;fontSize=18;" edge="1" parent="1" source="8q7LOPW9GghOLVW9f01z-32">
          <mxGeometry relative="1" as="geometry">
            <mxPoint x="740" y="457" as="targetPoint" />
          </mxGeometry>
        </mxCell>
        <mxCell id="8q7LOPW9GghOLVW9f01z-32" value="API Routes / Middleware&lt;div&gt;(Validation/ Sanitization)&lt;/div&gt;" style="whiteSpace=wrap;html=1;aspect=fixed;fontSize=18;" vertex="1" parent="1">
          <mxGeometry x="410" y="341.67" width="230" height="230" as="geometry" />
        </mxCell>
        <mxCell id="8q7LOPW9GghOLVW9f01z-53" style="edgeStyle=orthogonalEdgeStyle;rounded=0;orthogonalLoop=1;jettySize=auto;html=1;entryX=0.5;entryY=0;entryDx=0;entryDy=0;fontSize=18;" edge="1" parent="1" source="8q7LOPW9GghOLVW9f01z-34" target="8q7LOPW9GghOLVW9f01z-50">
          <mxGeometry relative="1" as="geometry" />
        </mxCell>
        <mxCell id="8q7LOPW9GghOLVW9f01z-34" value="Backend" style="swimlane;whiteSpace=wrap;html=1;fontSize=18;" vertex="1" parent="1">
          <mxGeometry x="740" y="310" width="553.33" height="630" as="geometry" />
        </mxCell>
        <mxCell id="8q7LOPW9GghOLVW9f01z-43" value="" style="edgeStyle=orthogonalEdgeStyle;rounded=0;orthogonalLoop=1;jettySize=auto;html=1;fontSize=18;" edge="1" parent="8q7LOPW9GghOLVW9f01z-34" source="8q7LOPW9GghOLVW9f01z-35" target="8q7LOPW9GghOLVW9f01z-36">
          <mxGeometry relative="1" as="geometry" />
        </mxCell>
        <mxCell id="8q7LOPW9GghOLVW9f01z-35" value="Firebase Auth" style="ellipse;whiteSpace=wrap;html=1;aspect=fixed;fontSize=18;" vertex="1" parent="8q7LOPW9GghOLVW9f01z-34">
          <mxGeometry x="60" y="60" width="140" height="140" as="geometry" />
        </mxCell>
        <mxCell id="8q7LOPW9GghOLVW9f01z-44" value="" style="edgeStyle=orthogonalEdgeStyle;rounded=0;orthogonalLoop=1;jettySize=auto;html=1;fontSize=18;" edge="1" parent="8q7LOPW9GghOLVW9f01z-34" source="8q7LOPW9GghOLVW9f01z-36" target="8q7LOPW9GghOLVW9f01z-37">
          <mxGeometry relative="1" as="geometry" />
        </mxCell>
        <mxCell id="8q7LOPW9GghOLVW9f01z-48" style="edgeStyle=orthogonalEdgeStyle;rounded=0;orthogonalLoop=1;jettySize=auto;html=1;fontSize=18;" edge="1" parent="8q7LOPW9GghOLVW9f01z-34" source="8q7LOPW9GghOLVW9f01z-36" target="8q7LOPW9GghOLVW9f01z-40">
          <mxGeometry relative="1" as="geometry" />
        </mxCell>
        <mxCell id="8q7LOPW9GghOLVW9f01z-36" value="Firebase Cloud Functions" style="shape=hexagon;perimeter=hexagonPerimeter2;whiteSpace=wrap;html=1;fixedSize=1;fontSize=18;" vertex="1" parent="8q7LOPW9GghOLVW9f01z-34">
          <mxGeometry x="45" y="248.33000000000004" width="170" height="113.33" as="geometry" />
        </mxCell>
        <mxCell id="8q7LOPW9GghOLVW9f01z-45" value="" style="edgeStyle=orthogonalEdgeStyle;rounded=0;orthogonalLoop=1;jettySize=auto;html=1;fontSize=18;" edge="1" parent="8q7LOPW9GghOLVW9f01z-34" source="8q7LOPW9GghOLVW9f01z-37" target="8q7LOPW9GghOLVW9f01z-38">
          <mxGeometry relative="1" as="geometry" />
        </mxCell>
        <mxCell id="8q7LOPW9GghOLVW9f01z-46" style="edgeStyle=orthogonalEdgeStyle;rounded=0;orthogonalLoop=1;jettySize=auto;html=1;entryX=0.5;entryY=0;entryDx=0;entryDy=0;fontSize=18;" edge="1" parent="8q7LOPW9GghOLVW9f01z-34" source="8q7LOPW9GghOLVW9f01z-37" target="8q7LOPW9GghOLVW9f01z-41">
          <mxGeometry relative="1" as="geometry" />
        </mxCell>
        <mxCell id="8q7LOPW9GghOLVW9f01z-37" value="Stripe Payment Processing" style="shape=parallelogram;perimeter=parallelogramPerimeter;whiteSpace=wrap;html=1;fixedSize=1;fontSize=18;" vertex="1" parent="8q7LOPW9GghOLVW9f01z-34">
          <mxGeometry x="30" y="410" width="200" height="85" as="geometry" />
        </mxCell>
        <mxCell id="8q7LOPW9GghOLVW9f01z-38" value="Webhooks&lt;div&gt;(Subscriptions, cancellation, status changes)&lt;/div&gt;" style="rounded=0;whiteSpace=wrap;html=1;fontSize=18;" vertex="1" parent="8q7LOPW9GghOLVW9f01z-34">
          <mxGeometry x="40" y="520" width="180" height="92.5" as="geometry" />
        </mxCell>
        <mxCell id="8q7LOPW9GghOLVW9f01z-39" value="Image Processing&lt;div&gt;(Compression, format conversion)&lt;/div&gt;" style="shape=step;perimeter=stepPerimeter;whiteSpace=wrap;html=1;fixedSize=1;fontSize=18;" vertex="1" parent="8q7LOPW9GghOLVW9f01z-34">
          <mxGeometry x="325" y="90" width="200" height="100" as="geometry" />
        </mxCell>
        <mxCell id="8q7LOPW9GghOLVW9f01z-40" value="OpenAI API&lt;div&gt;(Recipe Ingredient substitution Suggestions)&lt;/div&gt;" style="shape=step;perimeter=stepPerimeter;whiteSpace=wrap;html=1;fixedSize=1;fontSize=18;" vertex="1" parent="8q7LOPW9GghOLVW9f01z-34">
          <mxGeometry x="325" y="320" width="200" height="100" as="geometry" />
        </mxCell>
        <mxCell id="8q7LOPW9GghOLVW9f01z-41" value="&lt;div&gt;Customer Portal Creation&lt;/div&gt;" style="rounded=0;whiteSpace=wrap;html=1;fontSize=18;" vertex="1" parent="8q7LOPW9GghOLVW9f01z-34">
          <mxGeometry x="260" y="530" width="165" height="82.5" as="geometry" />
        </mxCell>
        <mxCell id="8q7LOPW9GghOLVW9f01z-47" style="edgeStyle=orthogonalEdgeStyle;rounded=0;orthogonalLoop=1;jettySize=auto;html=1;entryX=0.463;entryY=1.016;entryDx=0;entryDy=0;entryPerimeter=0;fontSize=18;" edge="1" parent="8q7LOPW9GghOLVW9f01z-34" source="8q7LOPW9GghOLVW9f01z-36" target="8q7LOPW9GghOLVW9f01z-39">
          <mxGeometry relative="1" as="geometry" />
        </mxCell>
        <mxCell id="8q7LOPW9GghOLVW9f01z-50" value="Data" style="swimlane;whiteSpace=wrap;html=1;fontSize=18;" vertex="1" parent="1">
          <mxGeometry x="270" y="1020" width="400" height="250" as="geometry" />
        </mxCell>
        <mxCell id="8q7LOPW9GghOLVW9f01z-51" value="Firestore NoSQL database (Users, Recipes, Subscriptions, etc.)" style="shape=cylinder3;whiteSpace=wrap;html=1;boundedLbl=1;backgroundOutline=1;size=15;fontSize=18;" vertex="1" parent="8q7LOPW9GghOLVW9f01z-50">
          <mxGeometry x="30" y="52.5" width="160" height="145" as="geometry" />
        </mxCell>
        <mxCell id="8q7LOPW9GghOLVW9f01z-52" value="Firebase Storage&lt;div&gt;(User Images,&lt;/div&gt;&lt;div&gt;Recipe Images)&lt;/div&gt;" style="shape=cylinder3;whiteSpace=wrap;html=1;boundedLbl=1;backgroundOutline=1;size=15;fontSize=18;" vertex="1" parent="8q7LOPW9GghOLVW9f01z-50">
          <mxGeometry x="220" y="50" width="160" height="150" as="geometry" />
        </mxCell>
        <mxCell id="8q7LOPW9GghOLVW9f01z-55" style="edgeStyle=orthogonalEdgeStyle;rounded=0;orthogonalLoop=1;jettySize=auto;html=1;entryX=0.5;entryY=0;entryDx=0;entryDy=0;fontSize=18;" edge="1" parent="1" source="8q7LOPW9GghOLVW9f01z-54" target="8q7LOPW9GghOLVW9f01z-34">
          <mxGeometry relative="1" as="geometry" />
        </mxCell>
        <mxCell id="8q7LOPW9GghOLVW9f01z-54" value="&lt;div&gt;Google Cloud Monitoring&lt;/div&gt;&lt;div&gt;(Invocations, Metrics, Logs)&lt;/div&gt;" style="rounded=0;whiteSpace=wrap;html=1;fontSize=18;" vertex="1" parent="1">
          <mxGeometry x="921.66" y="130" width="190" height="95" as="geometry" />
        </mxCell>
      </root>
    </mxGraphModel>
  </diagram>
</mxfile>
